<svg width="1921" height="45" viewBox="0 0 1921 45" fill="none" xmlns="http://www.w3.org/2000/svg">
<g filter="url(#filter0_b_6_320)">
<rect width="1920" height="44" transform="translate(0.942383 0.280762)" fill="#161617" fill-opacity="0.8"/>
<path d="M484.015 17.9631C483.494 18.282 483.063 18.7278 482.761 19.2589C482.46 19.7899 482.298 20.3888 482.29 20.9995C482.292 21.6869 482.496 22.3586 482.876 22.9313C483.256 23.5041 483.796 23.9528 484.428 24.2218C484.179 25.0264 483.81 25.7889 483.333 26.4837C482.652 27.4649 481.939 28.4459 480.855 28.4459C479.77 28.4459 479.491 27.816 478.242 27.816C477.023 27.816 476.589 28.4667 475.598 28.4667C474.606 28.4667 473.914 27.5578 473.119 26.4424C472.069 24.8798 471.491 23.0473 471.456 21.1647C471.456 18.0663 473.47 16.4242 475.453 16.4242C476.507 16.4242 477.385 17.1161 478.046 17.1161C478.676 17.1161 479.657 16.3829 480.855 16.3829C481.471 16.367 482.081 16.5028 482.632 16.7783C483.183 17.0539 483.658 17.4607 484.015 17.9631ZM480.287 15.0712C480.815 14.45 481.114 13.6664 481.134 12.8512C481.135 12.7438 481.124 12.6365 481.103 12.5312C480.196 12.6199 479.357 13.0522 478.758 13.7396C478.225 14.3361 477.915 15.0988 477.88 15.8982C477.881 15.9954 477.891 16.0923 477.911 16.1874C477.983 16.2009 478.055 16.2078 478.128 16.208C478.546 16.1748 478.953 16.0569 479.324 15.8614C479.695 15.666 480.023 15.3972 480.287 15.0712Z" fill="white" fill-opacity="0.8"/>
<path d="M546.65 20.7435C547.652 20.7435 548.32 21.4815 548.343 22.6005H544.863C544.939 21.4815 545.642 20.7435 546.65 20.7435ZM549.404 23.4155V23.0285C549.404 21.0655 548.367 19.8525 546.662 19.8525C544.927 19.8525 543.814 21.1415 543.814 23.1285C543.814 25.1265 544.91 26.3915 546.662 26.3915C548.045 26.3915 549.029 25.7235 549.322 24.6455H548.314C548.05 25.2025 547.5 25.5015 546.685 25.5015C545.613 25.5015 544.916 24.7105 544.863 23.4625V23.4155H549.404ZM539.857 19.9645H540.817V20.9015H540.911C541.099 20.2865 541.825 19.8525 542.663 19.8525C542.827 19.8525 543.038 19.8645 543.167 19.8825V20.8895C543.085 20.8665 542.722 20.8315 542.523 20.8315C541.562 20.8315 540.864 21.9295 540.864 22.3665V26.2805H539.857V19.9645ZM535.587 25.4835C534.392 25.4835 533.718 24.6165 533.718 23.1225C533.718 21.6225 534.392 20.7615 535.587 20.7615C536.783 20.7615 537.457 21.6225 537.457 23.1225C537.457 24.6165 536.783 25.4835 535.587 25.4835ZM535.587 19.8525C533.789 19.8525 532.675 21.0895 532.675 23.1225C532.675 25.1495 533.789 26.3915 535.587 26.3915C537.386 26.3915 538.5 25.1495 538.5 23.1225C538.5 21.0895 537.386 19.8525 535.587 19.8525ZM530.109 18.3775V20.0125H531.516V20.8555H530.109V24.4305C530.109 25.1745 530.391 25.4905 531.047 25.4905C531.229 25.4905 531.328 25.4845 531.516 25.4675V26.3165C531.317 26.3515 531.123 26.3755 530.924 26.3755C529.623 26.3755 529.102 25.8945 529.102 24.6875V20.8555H528.082V20.0125H529.102V18.3775H530.109ZM522.006 24.0715C522.135 24.9565 522.979 25.5185 524.18 25.5185C525.317 25.5185 526.155 24.9035 526.155 24.0655C526.155 23.3455 525.628 22.8885 524.462 22.5955L523.378 22.3135C521.848 21.9275 521.186 21.2355 521.186 20.0345C521.186 18.5985 522.387 17.6265 524.174 17.6265C525.809 17.6265 527.028 18.5985 527.116 19.9645H526.055C525.909 19.0975 525.194 18.5815 524.139 18.5815C523.014 18.5815 522.27 19.1435 522.27 19.9995C522.27 20.6615 522.733 21.0425 523.899 21.3415L524.784 21.5755C526.536 22.0145 527.239 22.6945 527.239 23.9365C527.239 25.4895 526.014 26.4795 524.081 26.4795C522.288 26.4795 521.051 25.5305 520.94 24.0715H522.006Z" fill="white" fill-opacity="0.8"/>
<path d="M593.378 26.2793V19.8223H593.308L590.642 26.2793H589.751L587.085 19.8223H587.015V26.2793H586.031V17.8242H587.255L590.15 24.8789H590.243L593.138 17.8242H594.363V26.2793H593.378ZM595.895 24.5097C595.895 23.3788 596.727 22.7285 598.198 22.6406L600.02 22.5293V21.9551C600.02 21.1758 599.534 20.7481 598.59 20.7481C597.834 20.7481 597.307 21.0352 597.166 21.5333H596.147C596.282 20.5196 597.278 19.8517 598.625 19.8517C600.166 19.8517 601.028 20.6427 601.028 21.9552V26.2794H600.067V25.3476H599.973C599.563 26.0214 598.871 26.3906 598.028 26.3906C596.803 26.3906 595.895 25.664 595.895 24.5097ZM600.02 23.9238V23.3437L598.321 23.455C597.36 23.5195 596.938 23.8534 596.938 24.4862C596.938 25.1307 597.483 25.5057 598.215 25.5057C599.252 25.5058 600.02 24.8261 600.02 23.9238ZM606.978 21.8965C606.814 21.2695 606.257 20.7598 605.349 20.7598C604.212 20.7598 603.497 21.668 603.497 23.0977C603.497 24.5567 604.224 25.4825 605.349 25.4825C606.199 25.4825 606.79 25.0899 606.978 24.3751H607.997C607.816 25.5353 606.872 26.3907 605.355 26.3907C603.585 26.3907 602.454 25.1075 602.454 23.0977C602.454 21.1289 603.579 19.8516 605.349 19.8516C606.884 19.8516 607.822 20.7715 607.997 21.8965H606.978Z" fill="white" fill-opacity="0.8"/>
<path d="M658.32 23.9809C658.32 24.8829 657.552 25.5629 656.515 25.5629C655.783 25.5629 655.238 25.1879 655.238 24.5429C655.238 23.9109 655.66 23.5769 656.621 23.5119L658.32 23.4009V23.9809ZM656.925 19.9089C655.578 19.9089 654.582 20.5769 654.447 21.5899H655.466C655.607 21.0919 656.134 20.8049 656.89 20.8049C657.834 20.8049 658.32 21.2329 658.32 22.0119V22.5859L656.498 22.6979C655.027 22.7859 654.195 23.4359 654.195 24.5669C654.195 25.7209 655.103 26.4479 656.328 26.4479C657.172 26.4479 657.863 26.0789 658.273 25.4049H658.367V26.3359H659.328V22.0119C659.328 20.6999 658.466 19.9089 656.925 19.9089ZM663.694 25.4839C662.539 25.4839 661.848 24.5989 661.848 23.1229C661.848 21.6519 662.545 20.7609 663.694 20.7609C664.836 20.7609 665.551 21.6749 665.551 23.1229C665.551 24.5819 664.842 25.4839 663.694 25.4839ZM665.528 17.4569V20.9599H665.44C665.082 20.2689 664.338 19.8529 663.459 19.8529C661.854 19.8529 660.805 21.1419 660.805 23.1229C660.805 25.1089 661.842 26.3919 663.459 26.3919C664.332 26.3919 665.082 25.9759 665.481 25.2729H665.574V26.2809H666.535V17.4569H665.528ZM650.134 22.3259H648.271V18.7629H650.134C651.359 18.7629 652.033 19.4019 652.033 20.5619C652.033 21.6809 651.336 22.3259 650.134 22.3259ZM650.41 17.8259H647.216V26.2809H648.271V23.2629H650.398C651.986 23.2629 653.117 22.1439 653.117 20.5619C653.117 18.9509 652.009 17.8259 650.41 17.8259ZM644.346 26.2799H645.354V19.9639H644.346V26.2799ZM644.147 18.0429C644.147 17.6559 644.463 17.3389 644.85 17.3389C645.237 17.3389 645.553 17.6559 645.553 18.0429C645.553 18.4289 645.237 18.7459 644.85 18.7459C644.463 18.7459 644.147 18.4289 644.147 18.0429Z" fill="white" fill-opacity="0.8"/>
<path d="M735.215 22.6009H738.695C738.672 21.4819 738.004 20.7439 737.002 20.7439C735.994 20.7439 735.291 21.4819 735.215 22.6009ZM739.674 24.6459C739.381 25.7239 738.397 26.3919 737.014 26.3919C735.262 26.3919 734.166 25.1259 734.166 23.1279C734.166 21.1419 735.279 19.8529 737.014 19.8529C738.719 19.8529 739.756 21.0659 739.756 23.0289V23.4149H735.215V23.4619C735.268 24.7099 735.965 25.5009 737.037 25.5009C737.852 25.5009 738.403 25.2029 738.666 24.6459H739.674ZM727.392 19.9639H728.353V20.9599H728.447C728.763 20.2629 729.379 19.8529 730.345 19.8529C731.763 19.8529 732.554 20.6909 732.554 22.1909V26.2809H731.547V22.4369C731.547 21.2999 731.066 20.7609 730.058 20.7609C729.05 20.7609 728.4 21.4349 728.4 22.5419V26.2809H727.392V19.9639ZM724.893 23.1219C724.893 21.6219 724.219 20.7609 723.024 20.7609C721.828 20.7609 721.154 21.6219 721.154 23.1219C721.154 24.6169 721.828 25.4839 723.024 25.4839C724.219 25.4839 724.893 24.6169 724.893 23.1219ZM720.111 23.1219C720.111 21.0889 721.225 19.8529 723.024 19.8529C724.822 19.8529 725.936 21.0889 725.936 23.1219C725.936 25.1499 724.822 26.3919 723.024 26.3919C721.225 26.3919 720.111 25.1499 720.111 23.1219ZM713.475 17.4559H714.483V20.9599H714.576C714.893 20.2629 715.555 19.8529 716.522 19.8529C717.858 19.8529 718.701 20.7079 718.701 22.1909V26.2809H717.694V22.4369C717.694 21.3179 717.19 20.7609 716.235 20.7609C715.104 20.7609 714.483 21.4759 714.483 22.5419V26.2809H713.475V17.4559ZM707.46 22.3259H709.323C710.525 22.3259 711.222 21.6809 711.222 20.5619C711.222 19.4019 710.548 18.7629 709.323 18.7629H707.46V22.3259ZM709.599 17.8259C711.198 17.8259 712.306 18.9509 712.306 20.5619C712.306 22.1439 711.175 23.2629 709.587 23.2629H707.46V26.2809H706.405V17.8259H709.599ZM703.485 26.2799H704.493V19.9639H703.485V26.2799ZM703.285 18.0419C703.285 17.6559 703.602 17.3389 703.988 17.3389C704.375 17.3389 704.692 17.6559 704.692 18.0419C704.692 18.4289 704.375 18.7459 703.988 18.7459C703.602 18.7459 703.285 18.4289 703.285 18.0419Z" fill="white" fill-opacity="0.8"/>
<path d="M804.624 17.4565H805.632V20.9605H805.726C806.042 20.2635 806.704 19.8525 807.671 19.8525C809.007 19.8525 809.851 20.7085 809.851 22.1905V26.2805H808.843V22.4365C808.843 21.3175 808.339 20.7615 807.384 20.7615C806.253 20.7615 805.632 21.4765 805.632 22.5425V26.2805H804.624V17.4565ZM802.204 21.8975C802.04 21.2705 801.483 20.7615 800.575 20.7615C799.438 20.7615 798.723 21.6695 798.723 23.0995C798.723 24.5585 799.45 25.4835 800.575 25.4835C801.424 25.4835 802.016 25.0915 802.204 24.3765H803.223C803.041 25.5365 802.098 26.3925 800.581 26.3925C798.811 26.3925 797.68 25.1085 797.68 23.0995C797.68 21.1305 798.805 19.8525 800.575 19.8525C802.11 19.8525 803.047 20.7725 803.223 21.8975H802.204ZM795.671 18.3295V19.9645H797.078V20.8085H795.671V24.3825C795.671 25.1265 795.953 25.4425 796.609 25.4425C796.791 25.4425 796.89 25.4365 797.078 25.4195V26.2695C796.878 26.3045 796.685 26.3275 796.486 26.3275C795.185 26.3275 794.664 25.8475 794.664 24.6405V20.8085H793.644V19.9645H794.664V18.3295H795.671ZM791.471 23.9255V23.3455L789.772 23.4565C788.811 23.5205 788.389 23.8545 788.389 24.4875C788.389 25.1325 788.934 25.5075 789.666 25.5075C790.704 25.5075 791.471 24.8275 791.471 23.9255ZM787.346 24.5115C787.346 23.3805 788.178 22.7295 789.649 22.6425L791.471 22.5305V21.9565C791.471 21.1775 790.985 20.7495 790.041 20.7495C789.286 20.7495 788.758 21.0365 788.618 21.5345H787.598C787.733 20.5205 788.729 19.8525 790.077 19.8525C791.618 19.8525 792.479 20.6445 792.479 21.9565V26.2805H791.518V25.3495H791.424C791.014 26.0225 790.323 26.3925 789.479 26.3925C788.254 26.3925 787.346 25.6655 787.346 24.5115ZM779.662 26.2805H778.666L776.363 17.8255H777.464L779.146 24.6985H779.216L781.109 17.8255H782.175L784.068 24.6985H784.138L785.82 17.8255H786.921L784.619 26.2805H783.623L781.677 19.6065H781.607L779.662 26.2805Z" fill="white" fill-opacity="0.8"/>
<path d="M846.187 17.8257H847.294L849.779 24.9155H849.872L852.357 17.8257H853.464L850.347 26.2808H849.304L846.187 17.8257ZM854.533 18.0425C854.533 17.6558 854.85 17.3394 855.237 17.3394C855.623 17.3394 855.94 17.6558 855.94 18.0425C855.94 18.4292 855.623 18.7456 855.237 18.7456C854.85 18.7456 854.533 18.4292 854.533 18.0425ZM854.721 19.9644H855.74V26.2808H854.721V19.9644ZM857.22 24.6695H858.263C858.433 25.1968 858.937 25.5425 859.745 25.5425C860.595 25.5425 861.198 25.1382 861.198 24.564V24.5523C861.198 24.1246 860.876 23.8257 860.097 23.6382L859.118 23.4038C857.935 23.1226 857.402 22.6069 857.402 21.6987V21.6928C857.402 20.644 858.409 19.853 859.751 19.853C861.075 19.853 861.995 20.5151 862.136 21.5464H861.134C860.999 21.0484 860.507 20.7026 859.745 20.7026C858.995 20.7026 858.444 21.0893 858.444 21.646V21.6577C858.444 22.0854 858.761 22.355 859.505 22.5366L860.478 22.771C861.667 23.0581 862.241 23.5737 862.241 24.4761V24.4878C862.241 25.6128 861.146 26.3921 859.71 26.3921C858.304 26.3921 857.337 25.7125 857.22 24.6695ZM863.54 18.0425C863.54 17.6558 863.857 17.3394 864.243 17.3394C864.63 17.3394 864.946 17.6558 864.946 18.0425C864.946 18.4292 864.63 18.7456 864.243 18.7456C863.857 18.7456 863.54 18.4292 863.54 18.0425ZM863.728 19.9644H864.747V26.2808H863.728V19.9644ZM866.233 23.1285V23.1168C866.233 21.0895 867.346 19.8531 869.145 19.8531C870.944 19.8531 872.057 21.0894 872.057 23.1168V23.1285C872.057 25.15 870.944 26.3922 869.145 26.3922C867.346 26.3922 866.233 25.15 866.233 23.1285ZM871.014 23.1285V23.1168C871.014 21.6227 870.34 20.7555 869.145 20.7555C867.949 20.7555 867.276 21.6227 867.276 23.1168V23.1285C867.276 24.6168 867.949 25.4898 869.145 25.4898C870.34 25.4898 871.014 24.6168 871.014 23.1285ZM873.519 19.9644H874.538V20.9136H874.632C874.948 20.2456 875.54 19.8531 876.472 19.8531C877.89 19.8531 878.681 20.691 878.681 22.191V26.2808H877.661V22.437C877.661 21.3003 877.193 20.7554 876.185 20.7554C875.177 20.7554 874.538 21.4351 874.538 22.5425V26.2808H873.519V19.9644Z" fill="white" fill-opacity="0.8"/>
<path d="M926.638 19.9644H927.599V20.9014H927.693C927.88 20.2864 928.607 19.8534 929.445 19.8534C929.609 19.8534 929.82 19.8644 929.949 19.8824V20.8904C929.867 20.8664 929.503 20.8314 929.304 20.8314C928.343 20.8314 927.646 21.4764 927.646 22.3664V26.2804H926.638V19.9644ZM954.773 19.8534C956.097 19.8534 957.017 20.5094 957.152 21.5464H956.156C956.021 21.0424 955.529 20.7084 954.767 20.7084C954.017 20.7084 953.431 21.0894 953.431 21.6514C953.431 22.0854 953.783 22.3554 954.527 22.5364L955.5 22.7714C956.689 23.0584 957.263 23.5734 957.263 24.4824C957.263 25.6124 956.168 26.3924 954.732 26.3924C953.326 26.3924 952.359 25.7184 952.248 24.6694H953.285C953.455 25.2024 953.959 25.5424 954.767 25.5424C955.617 25.5424 956.226 25.1384 956.226 24.5584C956.226 24.1244 955.898 23.8314 955.224 23.6674L954.14 23.4034C952.957 23.1164 952.418 22.6074 952.418 21.6934C952.418 20.6444 953.431 19.8534 954.773 19.8534ZM948.108 25.4844C946.953 25.4844 946.262 24.5994 946.262 23.1224C946.262 21.6514 946.959 20.7614 948.108 20.7614C949.25 20.7614 949.965 21.6754 949.965 23.1224C949.965 24.5814 949.256 25.4844 948.108 25.4844ZM949.942 17.4564V20.9604H949.854C949.496 20.2694 948.752 19.8534 947.873 19.8534C946.268 19.8534 945.219 21.1424 945.219 23.1224C945.219 25.1094 946.256 26.3924 947.873 26.3924C948.746 26.3924 949.496 25.9764 949.895 25.2734H949.989V26.2804H950.95V17.4564H949.942ZM940.941 25.4844C939.746 25.4844 939.072 24.6164 939.072 23.1224C939.072 21.6224 939.746 20.7614 940.941 20.7614C942.137 20.7614 942.81 21.6224 942.81 23.1224C942.81 24.6164 942.137 25.4844 940.941 25.4844ZM940.941 19.8534C939.142 19.8534 938.029 21.0894 938.029 23.1224C938.029 25.1504 939.142 26.3924 940.941 26.3924C942.74 26.3924 943.853 25.1504 943.853 23.1224C943.853 21.0894 942.74 19.8534 940.941 19.8534ZM923.87 26.2804H924.878V19.9644H923.87V26.2804ZM923.671 18.0424C923.671 17.6554 923.988 17.3394 924.374 17.3394C924.761 17.3394 925.077 17.6554 925.077 18.0424C925.077 18.4294 924.761 18.7454 924.374 18.7454C923.988 18.7454 923.671 18.4294 923.671 18.0424ZM917.534 22.9644L918.858 19.1914H918.951L920.276 22.9644H917.534ZM919.426 17.8254H918.383L915.266 26.2804H916.373L917.223 23.8604H920.586L921.436 26.2804H922.543L919.426 17.8254ZM934.294 22.3254H932.43V18.7634H934.294C935.518 18.7634 936.192 19.4024 936.192 20.5624C936.192 21.6814 935.495 22.3254 934.294 22.3254ZM934.569 17.8254H931.376V26.2804H932.43V23.2634H934.557C936.145 23.2634 937.276 22.1444 937.276 20.5624C937.276 18.9504 936.169 17.8254 934.569 17.8254Z" fill="white" fill-opacity="0.8"/>
<path d="M997.448 26.2809V18.775H994.723V17.8258H1001.23V18.775H998.502V26.2809H997.448ZM1005.18 26.2809L1002.06 17.8258H1003.17L1005.65 24.9156H1005.75L1008.23 17.8258H1009.34L1006.22 26.2809H1005.18ZM1019.16 25.4371C1018.44 26.0699 1017.45 26.4391 1016.42 26.4391C1014.74 26.4391 1013.56 25.443 1013.56 24.025C1013.56 23.023 1014.11 22.2613 1015.24 21.6637C1015.32 21.6285 1015.47 21.5465 1015.57 21.4996C1014.79 20.6793 1014.51 20.1344 1014.51 19.5191C1014.51 18.4351 1015.43 17.6265 1016.66 17.6265C1017.91 17.6265 1018.82 18.4234 1018.82 19.5308C1018.82 20.398 1018.3 21.0308 1016.99 21.7163L1019.11 23.9897C1019.37 23.4624 1019.51 22.7709 1019.51 21.7163V21.5698H1020.49V21.7221C1020.49 23.0346 1020.26 23.9897 1019.79 24.7045L1021.26 26.2809H1019.94L1019.16 25.4371ZM1014.62 23.9547C1014.62 24.9039 1015.39 25.5485 1016.52 25.5485C1017.29 25.5485 1018.08 25.2438 1018.54 24.7575L1016.15 22.1442C1016.08 22.1676 1015.93 22.2438 1015.85 22.2848C1015.04 22.7067 1014.62 23.2926 1014.62 23.9547ZM1017.83 19.5661C1017.83 18.9099 1017.36 18.4645 1016.67 18.4645C1016 18.4645 1015.52 18.9215 1015.52 19.5778C1015.52 20.0466 1015.76 20.4567 1016.42 21.1188C1017.46 20.5914 1017.83 20.1696 1017.83 19.5661ZM1031.35 26.2809V22.4313H1026.71V26.2809H1025.65V17.8258H1026.71V21.482H1031.35V17.8258H1032.4V26.2809H1031.35ZM1033.99 23.1227C1033.99 21.0895 1035.11 19.8532 1036.91 19.8532C1038.7 19.8532 1039.82 21.0895 1039.82 23.1227C1039.82 25.15 1038.7 26.3922 1036.91 26.3922C1035.11 26.3922 1033.99 25.15 1033.99 23.1227ZM1038.77 23.1227C1038.77 21.6227 1038.1 20.7614 1036.91 20.7614C1035.71 20.7614 1035.04 21.6227 1035.04 23.1227C1035.04 24.6168 1035.71 25.484 1036.91 25.484C1038.1 25.484 1038.77 24.6168 1038.77 23.1227ZM1041.28 19.9645H1042.24V20.9606H1042.33C1042.62 20.2575 1043.25 19.8532 1044.1 19.8532C1044.95 19.8532 1045.55 20.3044 1045.84 20.9606H1045.94C1046.28 20.2926 1047 19.8532 1047.87 19.8532C1049.16 19.8532 1049.88 20.5915 1049.88 21.9157V26.2809H1048.87V22.15C1048.87 21.2184 1048.43 20.7613 1047.54 20.7613C1046.66 20.7613 1046.08 21.4175 1046.08 22.2203V26.2809H1045.07V21.9918C1045.07 21.2418 1044.55 20.7613 1043.75 20.7613C1042.93 20.7613 1042.29 21.4761 1042.29 22.3668V26.2809H1041.28L1041.28 19.9645ZM1056.79 24.6461C1056.5 25.7242 1055.52 26.3922 1054.13 26.3922C1052.38 26.3922 1051.28 25.1266 1051.28 23.1285C1051.28 21.1422 1052.4 19.8531 1054.13 19.8531C1055.84 19.8531 1056.87 21.066 1056.87 23.0289V23.4156H1052.33V23.4625C1052.39 24.7105 1053.08 25.5016 1054.16 25.5016C1054.97 25.5016 1055.52 25.2028 1055.78 24.6461H1056.79ZM1052.33 22.6012H1055.81C1055.79 21.4821 1055.12 20.7438 1054.12 20.7438C1053.11 20.7438 1052.41 21.4821 1052.33 22.6012Z" fill="white" fill-opacity="0.8"/>
<path d="M1093.21 17.7671H1098.45V18.7163H1094.27V21.4292H1098.23V22.3667H1094.27V25.2729H1098.45V26.2221H1093.21V17.7671ZM1100.11 19.9058H1101.13V20.855H1101.23C1101.54 20.187 1102.13 19.7945 1103.06 19.7945C1104.48 19.7945 1105.27 20.6324 1105.27 22.1324V26.2222H1104.25V22.3784C1104.25 21.2417 1103.79 20.6968 1102.78 20.6968C1101.77 20.6968 1101.13 21.3765 1101.13 22.4839V26.2222H1100.11V19.9058ZM1107.39 24.5816V20.7496H1106.4V19.9058H1107.39V18.271H1108.45V19.9058H1109.83V20.7496H1108.45V24.3238C1108.45 25.0679 1108.7 25.3668 1109.36 25.3668C1109.54 25.3668 1109.64 25.3609 1109.83 25.3434V26.2106C1109.63 26.2458 1109.44 26.2692 1109.24 26.2692C1107.94 26.2691 1107.39 25.7886 1107.39 24.5816ZM1110.83 23.0874V23.0815C1110.83 21.1303 1111.94 19.7944 1113.66 19.7944C1115.38 19.7944 1116.42 21.0717 1116.42 22.9585V23.3569H1111.87C1111.9 24.6635 1112.62 25.4253 1113.75 25.4253C1114.6 25.4253 1115.13 25.021 1115.3 24.6401L1115.32 24.5874H1116.34L1116.33 24.6343C1116.11 25.4898 1115.21 26.3335 1113.72 26.3335C1111.92 26.3335 1110.83 25.0679 1110.83 23.0874ZM1111.89 22.5425H1115.38C1115.28 21.2945 1114.58 20.7027 1113.65 20.7027C1112.72 20.7027 1112 21.3413 1111.89 22.5425ZM1117.88 19.9058H1118.9V20.8433H1118.99C1119.23 20.1812 1119.83 19.7945 1120.68 19.7945C1120.87 19.7945 1121.09 19.8179 1121.19 19.8355V20.8257C1120.98 20.7905 1120.79 20.7671 1120.56 20.7671C1119.59 20.7671 1118.9 21.3823 1118.9 22.3081V26.2222H1117.88V19.9058ZM1122.85 24.5816V20.7496H1121.85V19.9058H1122.85V18.271H1123.9V19.9058H1125.28V20.7496H1123.9V24.3238C1123.9 25.0679 1124.16 25.3668 1124.82 25.3668C1125 25.3668 1125.1 25.3609 1125.28 25.3434V26.2106C1125.08 26.2458 1124.89 26.2692 1124.69 26.2692C1123.39 26.2691 1122.85 25.7886 1122.85 24.5816ZM1126.31 24.4585V24.4468C1126.31 23.3218 1127.14 22.6714 1128.61 22.5835L1130.43 22.4722V21.898C1130.43 21.1187 1129.95 20.6968 1129.01 20.6968C1128.25 20.6968 1127.75 20.978 1127.59 21.4702L1127.58 21.4878H1126.56L1126.57 21.4526C1126.73 20.4624 1127.69 19.7944 1129.04 19.7944C1130.58 19.7944 1131.44 20.5854 1131.44 21.8979V26.2221H1130.43V25.2905H1130.33C1129.93 25.9643 1129.27 26.3335 1128.42 26.3335C1127.22 26.3335 1126.31 25.607 1126.31 24.4585ZM1128.63 25.4488C1129.67 25.4488 1130.43 24.7691 1130.43 23.8668V23.2926L1128.74 23.3981C1127.78 23.4567 1127.36 23.7965 1127.36 24.4235V24.4352C1127.36 25.0738 1127.9 25.4488 1128.63 25.4488ZM1133.02 17.9839C1133.02 17.5972 1133.34 17.2808 1133.73 17.2808C1134.11 17.2808 1134.43 17.5972 1134.43 17.9839C1134.43 18.3706 1134.11 18.687 1133.73 18.687C1133.34 18.687 1133.02 18.3706 1133.02 17.9839ZM1133.21 19.9058H1134.23V26.2222H1133.21V19.9058ZM1136.03 19.9058H1137.05V20.855H1137.15C1137.46 20.187 1138.06 19.7945 1138.99 19.7945C1140.4 19.7945 1141.2 20.6324 1141.2 22.1324V26.2222H1140.18V22.3784C1140.18 21.2417 1139.71 20.6968 1138.7 20.6968C1137.69 20.6968 1137.05 21.3765 1137.05 22.4839V26.2222H1136.03V19.9058ZM1142.92 19.9058H1143.94V20.8667H1144.03C1144.31 20.187 1144.91 19.7944 1145.73 19.7944C1146.59 19.7944 1147.19 20.2456 1147.48 20.9018H1147.57C1147.91 20.2338 1148.63 19.7944 1149.51 19.7944C1150.8 19.7944 1151.52 20.5327 1151.52 21.8569V26.2221H1150.5V22.0912C1150.5 21.1596 1150.07 20.6967 1149.18 20.6967C1148.3 20.6967 1147.72 21.3588 1147.72 22.1615V26.222H1146.7V21.9329C1146.7 21.1829 1146.19 20.6966 1145.39 20.6966C1144.56 20.6966 1143.94 21.4173 1143.94 22.3079V26.222H1142.92L1142.92 19.9058ZM1152.92 23.0874V23.0815C1152.92 21.1303 1154.03 19.7944 1155.75 19.7944C1157.47 19.7944 1158.51 21.0717 1158.51 22.9585V23.3569H1153.96C1153.99 24.6635 1154.71 25.4253 1155.84 25.4253C1156.69 25.4253 1157.22 25.021 1157.39 24.6401L1157.41 24.5874H1158.43L1158.42 24.6343C1158.21 25.4898 1157.3 26.3335 1155.82 26.3335C1154.01 26.3335 1152.92 25.0679 1152.92 23.0874ZM1153.98 22.5425H1157.47C1157.37 21.2945 1156.68 20.7027 1155.74 20.7027C1154.81 20.7027 1154.09 21.3413 1153.98 22.5425ZM1159.97 19.9058H1160.99V20.855H1161.09C1161.4 20.187 1161.99 19.7945 1162.93 19.7945C1164.34 19.7945 1165.13 20.6324 1165.13 22.1324V26.2222H1164.11V22.3784C1164.11 21.2417 1163.65 20.6968 1162.64 20.6968C1161.63 20.6968 1160.99 21.3765 1160.99 22.4839V26.2222H1159.97V19.9058ZM1167.25 24.5816V20.7496H1166.26V19.9058H1167.25V18.271H1168.31V19.9058H1169.69V20.7496H1168.31V24.3238C1168.31 25.0679 1168.56 25.3668 1169.22 25.3668C1169.4 25.3668 1169.5 25.3609 1169.69 25.3434V26.2106C1169.49 26.2458 1169.3 26.2692 1169.1 26.2692C1167.8 26.2691 1167.25 25.7886 1167.25 24.5816Z" fill="white" fill-opacity="0.8"/>
<path d="M1211.01 23.8521H1207.65L1206.8 26.272H1205.69L1208.81 17.8169H1209.85L1212.97 26.272H1211.86L1211.01 23.8521ZM1207.96 22.9556H1210.7L1209.38 19.1822H1209.28L1207.96 22.9556ZM1218.06 21.8892C1217.89 21.2622 1217.34 20.7525 1216.43 20.7525C1215.29 20.7525 1214.58 21.6607 1214.58 23.0904C1214.58 24.5494 1215.3 25.4752 1216.43 25.4752C1217.28 25.4752 1217.87 25.0826 1218.06 24.3678H1219.08C1218.9 25.528 1217.95 26.3834 1216.44 26.3834C1214.67 26.3834 1213.54 25.1002 1213.54 23.0904C1213.54 21.1216 1214.66 19.8443 1216.43 19.8443C1217.96 19.8443 1218.9 20.7642 1219.08 21.8892H1218.06ZM1224.65 21.8892C1224.49 21.2622 1223.93 20.7525 1223.02 20.7525C1221.89 20.7525 1221.17 21.6607 1221.17 23.0904C1221.17 24.5494 1221.9 25.4752 1223.02 25.4752C1223.87 25.4752 1224.47 25.0826 1224.65 24.3678H1225.67C1225.49 25.528 1224.55 26.3834 1223.03 26.3834C1221.26 26.3834 1220.13 25.1002 1220.13 23.0904C1220.13 21.1216 1221.25 19.8443 1223.02 19.8443C1224.56 19.8443 1225.5 20.7642 1225.67 21.8892H1224.65ZM1232.23 24.6372C1231.94 25.7153 1230.96 26.3833 1229.57 26.3833C1227.82 26.3833 1226.72 25.1177 1226.72 23.1196C1226.72 21.1333 1227.84 19.8442 1229.57 19.8442C1231.28 19.8442 1232.31 21.0571 1232.31 23.02V23.4067H1227.77V23.4536C1227.83 24.7016 1228.52 25.4927 1229.6 25.4927C1230.41 25.4927 1230.96 25.1939 1231.23 24.6372H1232.23ZM1227.77 22.5923H1231.25C1231.23 21.4732 1230.56 20.7349 1229.56 20.7349C1228.55 20.7349 1227.85 21.4732 1227.77 22.5923ZM1235.99 19.8443C1237.31 19.8443 1238.23 20.5005 1238.36 21.5377H1237.37C1237.23 21.0338 1236.74 20.6998 1235.98 20.6998C1235.23 20.6998 1234.64 21.0807 1234.64 21.6432C1234.64 22.0768 1235 22.3463 1235.74 22.528L1236.71 22.7624C1237.9 23.0495 1238.48 23.5651 1238.48 24.4733C1238.48 25.6042 1237.38 26.3835 1235.94 26.3835C1234.54 26.3835 1233.57 25.7097 1233.46 24.6608H1234.5C1234.67 25.194 1235.17 25.5338 1235.98 25.5338C1236.83 25.5338 1237.44 25.1295 1237.44 24.5494C1237.44 24.1158 1237.11 23.8228 1236.44 23.6588L1235.35 23.3951C1234.17 23.108 1233.63 22.5982 1233.63 21.6842C1233.63 20.6353 1234.64 19.8443 1235.99 19.8443ZM1242.03 19.8443C1243.35 19.8443 1244.27 20.5005 1244.41 21.5377H1243.41C1243.28 21.0338 1242.79 20.6998 1242.02 20.6998C1241.27 20.6998 1240.69 21.0807 1240.69 21.6432C1240.69 22.0768 1241.04 22.3463 1241.78 22.528L1242.76 22.7624C1243.95 23.0495 1244.52 23.5651 1244.52 24.4733C1244.52 25.6042 1243.42 26.3835 1241.99 26.3835C1240.58 26.3835 1239.62 25.7097 1239.5 24.6608H1240.54C1240.71 25.194 1241.22 25.5338 1242.02 25.5338C1242.87 25.5338 1243.48 25.1295 1243.48 24.5494C1243.48 24.1158 1243.15 23.8228 1242.48 23.6588L1241.4 23.3951C1240.21 23.108 1239.67 22.5982 1239.67 21.6842C1239.67 20.6353 1240.69 19.8443 1242.03 19.8443ZM1245.67 23.1138C1245.67 21.0806 1246.78 19.8443 1248.58 19.8443C1250.38 19.8443 1251.49 21.0806 1251.49 23.1138C1251.49 25.1411 1250.38 26.3833 1248.58 26.3833C1246.78 26.3833 1245.67 25.1411 1245.67 23.1138ZM1250.45 23.1138C1250.45 21.6138 1249.77 20.7525 1248.58 20.7525C1247.38 20.7525 1246.71 21.6138 1246.71 23.1138C1246.71 24.6079 1247.38 25.4751 1248.58 25.4751C1249.77 25.4751 1250.45 24.6079 1250.45 23.1138ZM1252.95 19.9556H1253.91V20.8931H1254.01C1254.19 20.2779 1254.92 19.8443 1255.76 19.8443C1255.92 19.8443 1256.13 19.856 1256.26 19.8736V20.8814C1256.18 20.858 1255.82 20.8228 1255.62 20.8228C1254.66 20.8228 1253.96 21.4673 1253.96 22.358V26.2721H1252.95L1252.95 19.9556ZM1257.23 18.0337C1257.23 17.647 1257.54 17.3306 1257.93 17.3306C1258.32 17.3306 1258.63 17.647 1258.63 18.0337C1258.63 18.4204 1258.32 18.7368 1257.93 18.7368C1257.54 18.7368 1257.23 18.4204 1257.23 18.0337ZM1257.43 19.9556H1258.43V26.272H1257.43V19.9556ZM1265.43 24.6372C1265.13 25.7153 1264.15 26.3833 1262.77 26.3833C1261.01 26.3833 1259.92 25.1177 1259.92 23.1196C1259.92 21.1333 1261.03 19.8442 1262.77 19.8442C1264.47 19.8442 1265.51 21.0571 1265.51 23.02V23.4067H1260.97V23.4536C1261.02 24.7016 1261.72 25.4927 1262.79 25.4927C1263.6 25.4927 1264.16 25.1939 1264.42 24.6372H1265.43ZM1260.97 22.5923H1264.45C1264.42 21.4732 1263.76 20.7349 1262.75 20.7349C1261.75 20.7349 1261.04 21.4732 1260.97 22.5923ZM1269.18 19.8443C1270.5 19.8443 1271.42 20.5005 1271.56 21.5377H1270.56C1270.43 21.0338 1269.94 20.6998 1269.17 20.6998C1268.42 20.6998 1267.84 21.0807 1267.84 21.6432C1267.84 22.0768 1268.19 22.3463 1268.93 22.528L1269.91 22.7624C1271.1 23.0495 1271.67 23.5651 1271.67 24.4733C1271.67 25.6042 1270.57 26.3835 1269.14 26.3835C1267.73 26.3835 1266.77 25.7097 1266.65 24.6608H1267.69C1267.86 25.194 1268.37 25.5338 1269.17 25.5338C1270.02 25.5338 1270.63 25.1295 1270.63 24.5494C1270.63 24.1158 1270.3 23.8228 1269.63 23.6588L1268.55 23.3951C1267.36 23.108 1266.82 22.5982 1266.82 21.6842C1266.82 20.6353 1267.84 19.8443 1269.18 19.8443Z" fill="white" fill-opacity="0.8"/>
<path d="M1349.61 18.3143V19.9493H1351.02V20.7933H1349.61V24.3673C1349.61 25.1113 1349.89 25.4273 1350.55 25.4273C1350.73 25.4273 1350.83 25.4213 1351.02 25.4043V26.2533C1350.82 26.2893 1350.63 26.3123 1350.43 26.3123C1349.13 26.3123 1348.61 25.8323 1348.61 24.6253V20.7933H1347.59V19.9493H1348.61V18.3143H1349.61ZM1343.48 19.9493H1344.44V20.8863H1344.54C1344.72 20.2713 1345.45 19.8373 1346.29 19.8373C1346.45 19.8373 1346.66 19.8493 1346.79 19.8673V20.8753C1346.71 20.8513 1346.35 20.8163 1346.15 20.8163C1345.19 20.8163 1344.49 21.4603 1344.49 22.3513V26.2653H1343.48V19.9493ZM1341.02 23.1073C1341.02 21.6073 1340.35 20.7463 1339.15 20.7463C1337.96 20.7463 1337.28 21.6073 1337.28 23.1073C1337.28 24.6013 1337.96 25.4683 1339.15 25.4683C1340.35 25.4683 1341.02 24.6013 1341.02 23.1073ZM1336.24 23.1073C1336.24 21.0743 1337.35 19.8373 1339.15 19.8373C1340.95 19.8373 1342.06 21.0743 1342.06 23.1073C1342.06 25.1343 1340.95 26.3773 1339.15 26.3773C1337.35 26.3773 1336.24 25.1343 1336.24 23.1073ZM1334.13 23.1073C1334.13 21.6303 1333.44 20.7463 1332.28 20.7463C1331.14 20.7463 1330.42 21.6543 1330.42 23.1073C1330.42 24.5543 1331.14 25.4683 1332.28 25.4683C1333.44 25.4683 1334.13 24.5843 1334.13 23.1073ZM1335.17 23.1073C1335.17 25.0823 1334.12 26.3773 1332.52 26.3773C1331.62 26.3773 1330.89 25.9843 1330.54 25.3163H1330.45V28.3753H1329.44V19.9493H1330.4V21.0033H1330.5C1330.9 20.2773 1331.66 19.8373 1332.52 19.8373C1334.13 19.8373 1335.17 21.1213 1335.17 23.1073ZM1327.13 23.1073C1327.13 21.6303 1326.43 20.7463 1325.28 20.7463C1324.14 20.7463 1323.42 21.6543 1323.42 23.1073C1323.42 24.5543 1324.14 25.4683 1325.27 25.4683C1326.43 25.4683 1327.13 24.5843 1327.13 23.1073ZM1328.17 23.1073C1328.17 25.0823 1327.12 26.3773 1325.51 26.3773C1324.61 26.3773 1323.89 25.9843 1323.54 25.3163H1323.45V28.3753H1322.44V19.9493H1323.4V21.0033H1323.49C1323.9 20.2773 1324.65 19.8373 1325.51 19.8373C1327.13 19.8373 1328.17 21.1213 1328.17 23.1073ZM1320.52 26.2653H1319.56V25.2753H1319.47C1319.15 25.9783 1318.48 26.3773 1317.51 26.3773C1316.09 26.3773 1315.36 25.5333 1315.36 24.0393V19.9493H1316.36V23.7933C1316.36 24.9293 1316.79 25.4573 1317.79 25.4573C1318.91 25.4573 1319.52 24.7943 1319.52 23.6873V19.9493H1320.52V26.2653ZM1308.83 24.0563C1308.96 24.9413 1309.81 25.5033 1311.01 25.5033C1312.14 25.5033 1312.98 24.8883 1312.98 24.0503C1312.98 23.3303 1312.45 22.8733 1311.29 22.5803L1310.2 22.2983C1308.68 21.9123 1308.01 21.2203 1308.01 20.0193C1308.01 18.5843 1309.21 17.6113 1311 17.6113C1312.64 17.6113 1313.85 18.5843 1313.94 19.9493H1312.88C1312.74 19.0823 1312.02 18.5663 1310.97 18.5663C1309.84 18.5663 1309.1 19.1283 1309.1 19.9843C1309.1 20.6463 1309.56 21.0273 1310.73 21.3263L1311.61 21.5603C1313.36 22.0003 1314.07 22.6793 1314.07 23.9213C1314.07 25.4743 1312.84 26.4643 1310.91 26.4643C1309.11 26.4643 1307.88 25.5153 1307.77 24.0563H1308.83Z" fill="white" fill-opacity="0.8"/>
<path d="M1400.93 27.483L1397.06 23.613C1397.76 22.684 1398.18 21.532 1398.18 20.281C1398.18 17.221 1395.69 14.731 1392.63 14.731C1389.57 14.731 1387.08 17.221 1387.08 20.281C1387.08 23.342 1389.57 25.831 1392.63 25.831C1393.88 25.831 1395.04 25.41 1395.96 24.709L1399.83 28.579C1399.99 28.73 1400.18 28.807 1400.38 28.807C1400.58 28.807 1400.78 28.731 1400.93 28.579C1401.23 28.276 1401.23 27.786 1400.93 27.483ZM1388.18 20.281C1388.18 17.827 1390.18 15.831 1392.63 15.831C1395.09 15.831 1397.08 17.828 1397.08 20.281C1397.08 22.734 1395.09 24.731 1392.63 24.731C1390.18 24.731 1388.18 22.735 1388.18 20.281Z" fill="white" fill-opacity="0.8"/>
<path d="M1448.13 16.309H1447.11C1447 15.498 1446.6 14.753 1445.99 14.2091C1445.38 13.6652 1444.59 13.3584 1443.77 13.3442C1442.95 13.3584 1442.17 13.6652 1441.56 14.2091C1440.95 14.753 1440.55 15.498 1440.44 16.309H1439.42C1438.86 16.3094 1438.32 16.5325 1437.92 16.9292C1437.53 17.326 1437.3 17.864 1437.3 18.4252V26.1407C1437.3 26.7019 1437.53 27.2399 1437.92 27.6367C1438.32 28.0336 1438.86 28.2568 1439.42 28.2574H1448.13C1448.69 28.257 1449.23 28.0338 1449.62 27.637C1450.02 27.2401 1450.24 26.702 1450.24 26.1407V18.4252C1450.24 17.8641 1450.02 17.3261 1449.62 16.9294C1449.23 16.5326 1448.69 16.3095 1448.13 16.309ZM1443.77 14.4438C1444.3 14.4553 1444.81 14.6464 1445.21 14.9856C1445.62 15.3247 1445.89 15.7916 1445.99 16.309H1441.55C1441.65 15.7916 1441.93 15.3247 1442.33 14.9856C1442.74 14.6464 1443.25 14.4553 1443.77 14.4438ZM1449.14 26.1407C1449.14 26.4103 1449.04 26.6688 1448.84 26.8594C1448.65 27.0501 1448.4 27.1574 1448.13 27.1578H1439.42C1439.15 27.1574 1438.89 27.0501 1438.7 26.8594C1438.51 26.6687 1438.4 26.4103 1438.4 26.1407V18.4252C1438.4 18.1557 1438.51 17.8973 1438.7 17.7067C1438.89 17.5162 1439.15 17.409 1439.42 17.4086H1448.13C1448.4 17.409 1448.65 17.5162 1448.84 17.7068C1449.03 17.8974 1449.14 18.1558 1449.14 18.4252V26.1407Z" fill="white" fill-opacity="0.8"/>
</g>
<defs>
<filter id="filter0_b_6_320" x="-19.0576" y="-19.7192" width="1960" height="84" filterUnits="userSpaceOnUse" color-interpolation-filters="sRGB">
<feFlood flood-opacity="0" result="BackgroundImageFix"/>
<feGaussianBlur in="BackgroundImageFix" stdDeviation="10"/>
<feComposite in2="SourceAlpha" operator="in" result="effect1_backgroundBlur_6_320"/>
<feBlend mode="normal" in="SourceGraphic" in2="effect1_backgroundBlur_6_320" result="shape"/>
</filter>
</defs>
</svg>
