<svg width="1921" height="45" viewBox="0 0 1921 45" fill="none" xmlns="http://www.w3.org/2000/svg">
<g filter="url(#filter0_b_3_309)">
<rect width="1920" height="44" transform="translate(0.5 0.5)" fill="#161617" fill-opacity="0.8"/>
<path d="M483.573 18.1825C483.052 18.5014 482.621 18.9473 482.319 19.4783C482.017 20.0094 481.855 20.6083 481.848 21.219C481.85 21.9064 482.054 22.578 482.434 23.1508C482.814 23.7235 483.353 24.1722 483.986 24.4413C483.737 25.2459 483.368 26.0084 482.891 26.7031C482.21 27.6843 481.497 28.6654 480.413 28.6654C479.328 28.6654 479.049 28.0354 477.799 28.0354C476.581 28.0354 476.147 28.6861 475.155 28.6861C474.164 28.6861 473.472 27.7772 472.677 26.6618C471.626 25.0992 471.049 23.2667 471.014 21.3842C471.014 18.2858 473.028 16.6437 475.011 16.6437C476.064 16.6437 476.942 17.3356 477.603 17.3356C478.233 17.3356 479.215 16.6023 480.413 16.6023C481.028 16.5864 481.639 16.7222 482.19 16.9978C482.741 17.2733 483.216 17.6802 483.573 18.1825ZM479.844 15.2907C480.373 14.6695 480.672 13.8858 480.691 13.0707C480.692 12.9632 480.682 12.856 480.66 12.7507C479.753 12.8393 478.914 13.2717 478.316 13.9591C477.783 14.5556 477.473 15.3183 477.438 16.1176C477.438 16.2148 477.449 16.3117 477.469 16.4068C477.541 16.4203 477.613 16.4272 477.686 16.4275C478.104 16.3942 478.511 16.2763 478.882 16.0809C479.253 15.8855 479.581 15.6166 479.844 15.2907Z" fill="white" fill-opacity="0.8"/>
<path d="M546.208 20.9629C547.21 20.9629 547.878 21.7009 547.901 22.8199H544.421C544.497 21.7009 545.2 20.9629 546.208 20.9629ZM548.962 23.6349V23.2479C548.962 21.2849 547.925 20.0719 546.22 20.0719C544.485 20.0719 543.372 21.3609 543.372 23.3479C543.372 25.3459 544.468 26.6109 546.22 26.6109C547.603 26.6109 548.587 25.9429 548.88 24.8649H547.872C547.608 25.4219 547.058 25.7209 546.243 25.7209C545.171 25.7209 544.474 24.9299 544.421 23.6819V23.6349H548.962ZM539.415 20.1839H540.375V21.1209H540.469C540.657 20.5059 541.383 20.0719 542.221 20.0719C542.385 20.0719 542.596 20.0839 542.725 20.1019V21.1089C542.643 21.0859 542.28 21.0509 542.081 21.0509C541.12 21.0509 540.422 22.1489 540.422 22.5859V26.4999H539.415V20.1839ZM535.145 25.7029C533.95 25.7029 533.276 24.8359 533.276 23.3419C533.276 21.8419 533.95 20.9809 535.145 20.9809C536.341 20.9809 537.015 21.8419 537.015 23.3419C537.015 24.8359 536.341 25.7029 535.145 25.7029ZM535.145 20.0719C533.347 20.0719 532.233 21.3089 532.233 23.3419C532.233 25.3689 533.347 26.6109 535.145 26.6109C536.944 26.6109 538.058 25.3689 538.058 23.3419C538.058 21.3089 536.944 20.0719 535.145 20.0719ZM529.667 18.5969V20.2319H531.074V21.0749H529.667V24.6499C529.667 25.3939 529.949 25.7099 530.605 25.7099C530.787 25.7099 530.886 25.7039 531.074 25.6869V26.5359C530.875 26.5709 530.681 26.5949 530.482 26.5949C529.181 26.5949 528.66 26.1139 528.66 24.9069V21.0749H527.64V20.2319H528.66V18.5969H529.667ZM521.564 24.2909C521.693 25.1759 522.537 25.7379 523.738 25.7379C524.875 25.7379 525.713 25.1229 525.713 24.2849C525.713 23.5649 525.186 23.1079 524.02 22.8149L522.936 22.5329C521.406 22.1469 520.744 21.4549 520.744 20.2539C520.744 18.8179 521.945 17.8459 523.732 17.8459C525.367 17.8459 526.586 18.8179 526.674 20.1839H525.613C525.467 19.3169 524.752 18.8009 523.697 18.8009C522.572 18.8009 521.828 19.3629 521.828 20.2189C521.828 20.8809 522.291 21.2619 523.457 21.5609L524.342 21.7949C526.094 22.2339 526.797 22.9139 526.797 24.1559C526.797 25.7089 525.572 26.6989 523.639 26.6989C521.846 26.6989 520.609 25.7499 520.498 24.2909H521.564Z" fill="white" fill-opacity="0.8"/>
<path d="M592.936 26.4987V20.0417H592.866L590.2 26.4987H589.309L586.643 20.0417H586.573V26.4987H585.588V18.0436H586.813L589.707 25.0983H589.801L592.696 18.0436H593.92V26.4987H592.936ZM595.452 24.7291C595.452 23.5982 596.284 22.9479 597.755 22.86L599.577 22.7487V22.1745C599.577 21.3952 599.091 20.9675 598.148 20.9675C597.392 20.9675 596.865 21.2546 596.724 21.7527H595.704C595.839 20.739 596.835 20.0711 598.183 20.0711C599.724 20.0711 600.585 20.8621 600.585 22.1746V26.4988H599.624V25.567H599.531C599.12 26.2408 598.429 26.61 597.585 26.61C596.361 26.61 595.452 25.8834 595.452 24.7291ZM599.577 24.1432V23.5631L597.878 23.6744C596.917 23.7389 596.495 24.0728 596.495 24.7056C596.495 25.3501 597.04 25.7251 597.773 25.7251C598.81 25.7252 599.577 25.0455 599.577 24.1432ZM606.535 22.1159C606.371 21.4889 605.815 20.9792 604.907 20.9792C603.77 20.9792 603.055 21.8874 603.055 23.3171C603.055 24.7761 603.782 25.7019 604.907 25.7019C605.756 25.7019 606.348 25.3093 606.535 24.5945H607.555C607.373 25.7547 606.43 26.6101 604.912 26.6101C603.143 26.6101 602.012 25.3269 602.012 23.3171C602.012 21.3483 603.137 20.071 604.906 20.071C606.442 20.071 607.379 20.9909 607.555 22.1159H606.535Z" fill="white" fill-opacity="0.8"/>
<path d="M657.877 24.2002C657.877 25.1022 657.109 25.7822 656.072 25.7822C655.34 25.7822 654.795 25.4072 654.795 24.7622C654.795 24.1302 655.217 23.7962 656.178 23.7312L657.877 23.6202V24.2002ZM656.482 20.1282C655.135 20.1282 654.139 20.7962 654.004 21.8092H655.023C655.164 21.3112 655.691 21.0242 656.447 21.0242C657.391 21.0242 657.877 21.4522 657.877 22.2312V22.8052L656.055 22.9172C654.584 23.0052 653.752 23.6552 653.752 24.7862C653.752 25.9402 654.66 26.6672 655.885 26.6672C656.729 26.6672 657.42 26.2982 657.83 25.6242H657.924V26.5552H658.885V22.2312C658.885 20.9192 658.023 20.1282 656.482 20.1282ZM663.251 25.7032C662.096 25.7032 661.405 24.8182 661.405 23.3422C661.405 21.8712 662.102 20.9802 663.251 20.9802C664.393 20.9802 665.108 21.8942 665.108 23.3422C665.108 24.8012 664.399 25.7032 663.251 25.7032ZM665.085 17.6762V21.1792H664.997C664.639 20.4882 663.895 20.0722 663.016 20.0722C661.411 20.0722 660.362 21.3612 660.362 23.3422C660.362 25.3282 661.399 26.6112 663.016 26.6112C663.889 26.6112 664.639 26.1952 665.038 25.4922H665.131V26.5002H666.092V17.6762H665.085ZM649.691 22.5452H647.828V18.9822H649.691C650.916 18.9822 651.59 19.6212 651.59 20.7812C651.59 21.9002 650.893 22.5452 649.691 22.5452ZM649.967 18.0452H646.773V26.5002H647.828V23.4822H649.955C651.543 23.4822 652.674 22.3632 652.674 20.7812C652.674 19.1702 651.566 18.0452 649.967 18.0452ZM643.903 26.4992H644.911V20.1832H643.903V26.4992ZM643.704 18.2622C643.704 17.8752 644.02 17.5582 644.407 17.5582C644.794 17.5582 645.11 17.8752 645.11 18.2622C645.11 18.6482 644.794 18.9652 644.407 18.9652C644.02 18.9652 643.704 18.6482 643.704 18.2622Z" fill="white" fill-opacity="0.8"/>
<path d="M734.773 22.8203H738.253C738.23 21.7013 737.562 20.9633 736.56 20.9633C735.552 20.9633 734.849 21.7013 734.773 22.8203ZM739.232 24.8653C738.939 25.9433 737.955 26.6113 736.572 26.6113C734.82 26.6113 733.724 25.3453 733.724 23.3473C733.724 21.3613 734.837 20.0723 736.572 20.0723C738.277 20.0723 739.314 21.2853 739.314 23.2483V23.6343H734.773V23.6813C734.826 24.9293 735.523 25.7203 736.595 25.7203C737.41 25.7203 737.961 25.4223 738.224 24.8653H739.232ZM726.95 20.1833H727.911V21.1793H728.005C728.321 20.4823 728.937 20.0723 729.903 20.0723C731.321 20.0723 732.112 20.9103 732.112 22.4103V26.5003H731.105V22.6563C731.105 21.5193 730.624 20.9803 729.616 20.9803C728.608 20.9803 727.958 21.6543 727.958 22.7613V26.5003H726.95V20.1833ZM724.451 23.3413C724.451 21.8413 723.777 20.9803 722.582 20.9803C721.386 20.9803 720.712 21.8413 720.712 23.3413C720.712 24.8363 721.386 25.7033 722.582 25.7033C723.777 25.7033 724.451 24.8363 724.451 23.3413ZM719.669 23.3413C719.669 21.3083 720.783 20.0723 722.582 20.0723C724.38 20.0723 725.494 21.3083 725.494 23.3413C725.494 25.3693 724.38 26.6113 722.582 26.6113C720.783 26.6113 719.669 25.3693 719.669 23.3413ZM713.033 17.6753H714.041V21.1793H714.134C714.451 20.4823 715.113 20.0723 716.08 20.0723C717.416 20.0723 718.259 20.9273 718.259 22.4103V26.5003H717.252V22.6563C717.252 21.5373 716.748 20.9803 715.793 20.9803C714.662 20.9803 714.041 21.6953 714.041 22.7613V26.5003H713.033V17.6753ZM707.018 22.5453H708.881C710.083 22.5453 710.78 21.9003 710.78 20.7813C710.78 19.6213 710.106 18.9823 708.881 18.9823H707.018V22.5453ZM709.157 18.0453C710.756 18.0453 711.864 19.1703 711.864 20.7813C711.864 22.3633 710.733 23.4823 709.145 23.4823H707.018V26.5003H705.963V18.0453H709.157ZM703.043 26.4993H704.051V20.1833H703.043V26.4993ZM702.843 18.2613C702.843 17.8753 703.16 17.5583 703.546 17.5583C703.933 17.5583 704.25 17.8753 704.25 18.2613C704.25 18.6483 703.933 18.9653 703.546 18.9653C703.16 18.9653 702.843 18.6483 702.843 18.2613Z" fill="white" fill-opacity="0.8"/>
<path d="M804.182 17.6758H805.19V21.1798H805.284C805.6 20.4828 806.262 20.0718 807.229 20.0718C808.565 20.0718 809.409 20.9278 809.409 22.4098V26.4998H808.401V22.6558C808.401 21.5368 807.897 20.9808 806.942 20.9808C805.811 20.9808 805.19 21.6958 805.19 22.7618V26.4998H804.182V17.6758ZM801.762 22.1168C801.598 21.4898 801.041 20.9808 800.133 20.9808C798.996 20.9808 798.281 21.8888 798.281 23.3188C798.281 24.7778 799.008 25.7028 800.133 25.7028C800.982 25.7028 801.574 25.3108 801.762 24.5958H802.781C802.599 25.7558 801.656 26.6118 800.139 26.6118C798.369 26.6118 797.238 25.3278 797.238 23.3188C797.238 21.3498 798.363 20.0718 800.133 20.0718C801.668 20.0718 802.605 20.9918 802.781 22.1168H801.762ZM795.229 18.5488V20.1838H796.636V21.0278H795.229V24.6018C795.229 25.3458 795.511 25.6618 796.167 25.6618C796.349 25.6618 796.448 25.6558 796.636 25.6388V26.4888C796.436 26.5238 796.243 26.5468 796.044 26.5468C794.743 26.5468 794.222 26.0668 794.222 24.8598V21.0278H793.202V20.1838H794.222V18.5488H795.229ZM791.029 24.1448V23.5648L789.33 23.6758C788.369 23.7398 787.947 24.0738 787.947 24.7068C787.947 25.3518 788.492 25.7268 789.224 25.7268C790.262 25.7268 791.029 25.0468 791.029 24.1448ZM786.904 24.7308C786.904 23.5998 787.736 22.9488 789.207 22.8618L791.029 22.7498V22.1758C791.029 21.3968 790.543 20.9688 789.599 20.9688C788.844 20.9688 788.316 21.2558 788.176 21.7538H787.156C787.291 20.7398 788.287 20.0718 789.635 20.0718C791.176 20.0718 792.037 20.8638 792.037 22.1758V26.4998H791.076V25.5688H790.982C790.572 26.2418 789.881 26.6118 789.037 26.6118C787.812 26.6118 786.904 25.8848 786.904 24.7308ZM779.22 26.4998H778.224L775.921 18.0448H777.022L778.704 24.9178H778.774L780.667 18.0448H781.733L783.626 24.9178H783.696L785.378 18.0448H786.479L784.177 26.4998H783.181L781.235 19.8258H781.165L779.22 26.4998Z" fill="white" fill-opacity="0.8"/>
<path d="M845.744 18.0449H846.852L849.336 25.1347H849.43L851.914 18.0449H853.022L849.904 26.5H848.861L845.744 18.0449ZM854.091 18.2617C854.091 17.875 854.407 17.5586 854.794 17.5586C855.181 17.5586 855.497 17.875 855.497 18.2617C855.497 18.6484 855.181 18.9648 854.794 18.9648C854.407 18.9648 854.091 18.6484 854.091 18.2617ZM854.278 20.1836H855.298V26.5H854.278V20.1836ZM856.777 24.8887H857.82C857.99 25.416 858.494 25.7617 859.303 25.7617C860.152 25.7617 860.756 25.3574 860.756 24.7832V24.7715C860.756 24.3438 860.434 24.0449 859.654 23.8574L858.676 23.623C857.492 23.3418 856.959 22.8261 856.959 21.9179V21.912C856.959 20.8632 857.967 20.0722 859.309 20.0722C860.633 20.0722 861.553 20.7343 861.693 21.7656H860.691C860.557 21.2676 860.064 20.9218 859.303 20.9218C858.553 20.9218 858.002 21.3085 858.002 21.8652V21.8769C858.002 22.3046 858.318 22.5742 859.062 22.7558L860.035 22.9902C861.225 23.2773 861.799 23.7929 861.799 24.6953V24.707C861.799 25.832 860.703 26.6113 859.268 26.6113C857.861 26.6113 856.895 25.9317 856.777 24.8887ZM863.098 18.2617C863.098 17.875 863.414 17.5586 863.801 17.5586C864.188 17.5586 864.504 17.875 864.504 18.2617C864.504 18.6484 864.188 18.9648 863.801 18.9648C863.414 18.9648 863.098 18.6484 863.098 18.2617ZM863.285 20.1836H864.305V26.5H863.285V20.1836ZM865.79 23.3477V23.336C865.79 21.3087 866.903 20.0723 868.702 20.0723C870.501 20.0723 871.614 21.3086 871.614 23.336V23.3477C871.614 25.3692 870.501 26.6114 868.702 26.6114C866.903 26.6114 865.79 25.3692 865.79 23.3477ZM870.571 23.3477V23.336C870.571 21.8419 869.898 20.9747 868.702 20.9747C867.507 20.9747 866.833 21.8419 866.833 23.336V23.3477C866.833 24.836 867.507 25.709 868.702 25.709C869.898 25.709 870.571 24.836 870.571 23.3477ZM873.076 20.1836H874.096V21.1328H874.19C874.506 20.4648 875.098 20.0723 876.029 20.0723C877.447 20.0723 878.238 20.9102 878.238 22.4102V26.5H877.219V22.6562C877.219 21.5195 876.75 20.9746 875.742 20.9746C874.734 20.9746 874.096 21.6543 874.096 22.7617V26.5H873.076V20.1836Z" fill="white" fill-opacity="0.8"/>
<path d="M926.195 20.1836H927.156V21.1206H927.25C927.437 20.5056 928.164 20.0726 929.002 20.0726C929.166 20.0726 929.377 20.0836 929.506 20.1016V21.1096C929.424 21.0856 929.06 21.0506 928.861 21.0506C927.9 21.0506 927.203 21.6956 927.203 22.5856V26.4996H926.195V20.1836ZM954.33 20.0726C955.654 20.0726 956.574 20.7286 956.709 21.7656H955.713C955.578 21.2616 955.086 20.9276 954.324 20.9276C953.574 20.9276 952.988 21.3086 952.988 21.8706C952.988 22.3046 953.34 22.5746 954.084 22.7556L955.057 22.9906C956.246 23.2776 956.82 23.7926 956.82 24.7016C956.82 25.8316 955.725 26.6116 954.289 26.6116C952.883 26.6116 951.916 25.9376 951.805 24.8886H952.842C953.012 25.4216 953.516 25.7616 954.324 25.7616C955.174 25.7616 955.783 25.3576 955.783 24.7776C955.783 24.3436 955.455 24.0506 954.781 23.8866L953.697 23.6226C952.514 23.3356 951.975 22.8266 951.975 21.9126C951.975 20.8636 952.988 20.0726 954.33 20.0726ZM947.665 25.7036C946.51 25.7036 945.819 24.8186 945.819 23.3416C945.819 21.8706 946.516 20.9806 947.665 20.9806C948.807 20.9806 949.522 21.8946 949.522 23.3416C949.522 24.8006 948.813 25.7036 947.665 25.7036ZM949.499 17.6756V21.1796H949.411C949.053 20.4886 948.309 20.0726 947.43 20.0726C945.825 20.0726 944.776 21.3616 944.776 23.3416C944.776 25.3286 945.813 26.6116 947.43 26.6116C948.303 26.6116 949.053 26.1956 949.452 25.4926H949.546V26.4996H950.507V17.6756H949.499ZM940.498 25.7036C939.303 25.7036 938.629 24.8356 938.629 23.3416C938.629 21.8416 939.303 20.9806 940.498 20.9806C941.694 20.9806 942.367 21.8416 942.367 23.3416C942.367 24.8356 941.694 25.7036 940.498 25.7036ZM940.498 20.0726C938.699 20.0726 937.586 21.3086 937.586 23.3416C937.586 25.3696 938.699 26.6116 940.498 26.6116C942.297 26.6116 943.41 25.3696 943.41 23.3416C943.41 21.3086 942.297 20.0726 940.498 20.0726ZM923.427 26.4996H924.435V20.1836H923.427V26.4996ZM923.228 18.2616C923.228 17.8746 923.545 17.5586 923.931 17.5586C924.318 17.5586 924.634 17.8746 924.634 18.2616C924.634 18.6486 924.318 18.9646 923.931 18.9646C923.545 18.9646 923.228 18.6486 923.228 18.2616ZM917.091 23.1836L918.415 19.4106H918.508L919.833 23.1836H917.091ZM918.983 18.0446H917.94L914.823 26.4996H915.93L916.78 24.0796H920.143L920.993 26.4996H922.1L918.983 18.0446ZM933.851 22.5446H931.987V18.9826H933.851C935.075 18.9826 935.749 19.6216 935.749 20.7816C935.749 21.9006 935.052 22.5446 933.851 22.5446ZM934.126 18.0446H930.933V26.4996H931.987V23.4826H934.114C935.702 23.4826 936.833 22.3636 936.833 20.7816C936.833 19.1696 935.726 18.0446 934.126 18.0446Z" fill="white" fill-opacity="0.8"/>
<path d="M997.005 26.5V18.9941H994.281V18.0449H1000.78V18.9941H998.06V26.5H997.005ZM1004.74 26.5L1001.62 18.0449H1002.73L1005.21 25.1347H1005.31L1007.79 18.0449H1008.9L1005.78 26.5H1004.74ZM1018.72 25.6562C1018 26.289 1017.01 26.6582 1015.98 26.6582C1014.3 26.6582 1013.12 25.6621 1013.12 24.2441C1013.12 23.2421 1013.67 22.4804 1014.8 21.8828C1014.87 21.8476 1015.03 21.7656 1015.13 21.7187C1014.35 20.8984 1014.07 20.3535 1014.07 19.7382C1014.07 18.6542 1014.99 17.8456 1016.22 17.8456C1017.47 17.8456 1018.38 18.6425 1018.38 19.7499C1018.38 20.6171 1017.86 21.2499 1016.55 21.9354L1018.67 24.2088C1018.93 23.6815 1019.06 22.99 1019.06 21.9354V21.7889H1020.05V21.9412C1020.05 23.2537 1019.81 24.2088 1019.35 24.9236L1020.82 26.5H1019.5L1018.72 25.6562ZM1014.18 24.1738C1014.18 25.123 1014.94 25.7676 1016.08 25.7676C1016.84 25.7676 1017.63 25.4629 1018.1 24.9766L1015.71 22.3633C1015.64 22.3867 1015.49 22.4629 1015.41 22.5039C1014.59 22.9258 1014.18 23.5117 1014.18 24.1738ZM1017.39 19.7852C1017.39 19.129 1016.91 18.6836 1016.23 18.6836C1015.55 18.6836 1015.07 19.1406 1015.07 19.7969C1015.07 20.2657 1015.31 20.6758 1015.98 21.3379C1017.01 20.8105 1017.39 20.3887 1017.39 19.7852ZM1030.91 26.5V22.6504H1026.26V26.5H1025.21V18.0449H1026.26V21.7011H1030.91V18.0449H1031.96V26.5H1030.91ZM1033.55 23.3418C1033.55 21.3086 1034.66 20.0723 1036.46 20.0723C1038.26 20.0723 1039.38 21.3086 1039.38 23.3418C1039.38 25.3691 1038.26 26.6113 1036.46 26.6113C1034.66 26.6113 1033.55 25.3691 1033.55 23.3418ZM1038.33 23.3418C1038.33 21.8418 1037.66 20.9805 1036.46 20.9805C1035.27 20.9805 1034.59 21.8418 1034.59 23.3418C1034.59 24.8359 1035.27 25.7031 1036.46 25.7031C1037.66 25.7031 1038.33 24.8359 1038.33 23.3418ZM1040.84 20.1836H1041.8V21.1797H1041.89C1042.18 20.4766 1042.81 20.0723 1043.66 20.0723C1044.51 20.0723 1045.11 20.5235 1045.4 21.1797H1045.5C1045.84 20.5117 1046.56 20.0723 1047.43 20.0723C1048.72 20.0723 1049.44 20.8106 1049.44 22.1348V26.5H1048.43V22.3691C1048.43 21.4375 1047.99 20.9804 1047.1 20.9804C1046.22 20.9804 1045.64 21.6366 1045.64 22.4394V26.5H1044.63V22.2109C1044.63 21.4609 1044.11 20.9804 1043.31 20.9804C1042.48 20.9804 1041.85 21.6952 1041.85 22.5859V26.5H1040.84L1040.84 20.1836ZM1056.35 24.8652C1056.06 25.9433 1055.07 26.6113 1053.69 26.6113C1051.94 26.6113 1050.84 25.3457 1050.84 23.3476C1050.84 21.3613 1051.96 20.0722 1053.69 20.0722C1055.4 20.0722 1056.43 21.2851 1056.43 23.248V23.6347H1051.89V23.6816C1051.94 24.9296 1052.64 25.7207 1053.71 25.7207C1054.53 25.7207 1055.08 25.4219 1055.34 24.8652H1056.35ZM1051.89 22.8203H1055.37C1055.35 21.7012 1054.68 20.9629 1053.68 20.9629C1052.67 20.9629 1051.97 21.7012 1051.89 22.8203Z" fill="white" fill-opacity="0.8"/>
<path d="M1092.77 17.9863H1098.01V18.9355H1093.82V21.6484H1097.79V22.5859H1093.82V25.4921H1098.01V26.4413H1092.77V17.9863ZM1099.67 20.125H1100.69V21.0742H1100.78C1101.1 20.4062 1101.69 20.0137 1102.62 20.0137C1104.04 20.0137 1104.83 20.8516 1104.83 22.3516V26.4414H1103.81V22.5976C1103.81 21.4609 1103.34 20.916 1102.34 20.916C1101.33 20.916 1100.69 21.5957 1100.69 22.7031V26.4414H1099.67V20.125ZM1106.95 24.8008V20.9688H1105.95V20.125H1106.95V18.4902H1108V20.125H1109.39V20.9688H1108V24.543C1108 25.2871 1108.26 25.586 1108.92 25.586C1109.1 25.586 1109.2 25.5801 1109.39 25.5626V26.4298C1109.19 26.465 1108.99 26.4884 1108.8 26.4884C1107.49 26.4883 1106.95 26.0078 1106.95 24.8008ZM1110.39 23.3066V23.3007C1110.39 21.3495 1111.5 20.0136 1113.22 20.0136C1114.93 20.0136 1115.98 21.2909 1115.98 23.1777V23.5761H1111.43C1111.46 24.8827 1112.18 25.6445 1113.3 25.6445C1114.16 25.6445 1114.69 25.2402 1114.86 24.8593L1114.88 24.8066H1115.9L1115.89 24.8535C1115.67 25.709 1114.77 26.5527 1113.28 26.5527C1111.48 26.5527 1110.39 25.2871 1110.39 23.3066ZM1111.45 22.7617H1114.94C1114.83 21.5137 1114.14 20.9219 1113.21 20.9219C1112.27 20.9219 1111.56 21.5605 1111.45 22.7617ZM1117.44 20.125H1118.46V21.0625H1118.55C1118.79 20.4004 1119.38 20.0137 1120.24 20.0137C1120.43 20.0137 1120.65 20.0371 1120.75 20.0547V21.0449C1120.54 21.0097 1120.34 20.9863 1120.12 20.9863C1119.15 20.9863 1118.46 21.6015 1118.46 22.5273V26.4414H1117.44V20.125ZM1122.4 24.8008V20.9688H1121.41V20.125H1122.4V18.4902H1123.46V20.125H1124.84V20.9688H1123.46V24.543C1123.46 25.2871 1123.72 25.586 1124.37 25.586C1124.55 25.586 1124.65 25.5801 1124.84 25.5626V26.4298C1124.64 26.465 1124.45 26.4884 1124.25 26.4884C1122.95 26.4883 1122.4 26.0078 1122.4 24.8008ZM1125.87 24.6777V24.666C1125.87 23.541 1126.7 22.8906 1128.17 22.8027L1129.98 22.6914V22.1172C1129.98 21.3379 1129.51 20.916 1128.56 20.916C1127.81 20.916 1127.31 21.1972 1127.15 21.6894L1127.14 21.707H1126.12L1126.13 21.6718C1126.29 20.6816 1127.25 20.0136 1128.6 20.0136C1130.14 20.0136 1131 20.8046 1131 22.1171V26.4413H1129.98V25.5097H1129.89C1129.49 26.1835 1128.83 26.5527 1127.98 26.5527C1126.78 26.5527 1125.87 25.8262 1125.87 24.6777ZM1128.19 25.668C1129.23 25.668 1129.98 24.9883 1129.98 24.086V23.5118L1128.3 23.6173C1127.33 23.6759 1126.91 24.0157 1126.91 24.6427V24.6544C1126.91 25.293 1127.46 25.668 1128.19 25.668ZM1132.58 18.2031C1132.58 17.8164 1132.9 17.5 1133.29 17.5C1133.67 17.5 1133.99 17.8164 1133.99 18.2031C1133.99 18.5898 1133.67 18.9062 1133.29 18.9062C1132.9 18.9062 1132.58 18.5898 1132.58 18.2031ZM1132.77 20.125H1133.79V26.4414H1132.77V20.125ZM1135.59 20.125H1136.61V21.0742H1136.7C1137.02 20.4062 1137.61 20.0137 1138.54 20.0137C1139.96 20.0137 1140.75 20.8516 1140.75 22.3516V26.4414H1139.73V22.5976C1139.73 21.4609 1139.27 20.916 1138.26 20.916C1137.25 20.916 1136.61 21.5957 1136.61 22.7031V26.4414H1135.59V20.125ZM1142.47 20.125H1143.49V21.0859H1143.59C1143.87 20.4062 1144.47 20.0136 1145.29 20.0136C1146.15 20.0136 1146.74 20.4648 1147.04 21.121H1147.13C1147.47 20.453 1148.19 20.0136 1149.07 20.0136C1150.35 20.0136 1151.07 20.7519 1151.07 22.0761V26.4413H1150.06V22.3104C1150.06 21.3788 1149.63 20.9159 1148.74 20.9159C1147.86 20.9159 1147.28 21.578 1147.28 22.3807V26.4412H1146.26V22.1521C1146.26 21.4021 1145.74 20.9158 1144.95 20.9158C1144.12 20.9158 1143.49 21.6365 1143.49 22.5271V26.4412H1142.47L1142.47 20.125ZM1152.48 23.3066V23.3007C1152.48 21.3495 1153.59 20.0136 1155.31 20.0136C1157.02 20.0136 1158.07 21.2909 1158.07 23.1777V23.5761H1153.52C1153.55 24.8827 1154.27 25.6445 1155.4 25.6445C1156.25 25.6445 1156.78 25.2402 1156.95 24.8593L1156.97 24.8066H1157.99L1157.98 24.8535C1157.76 25.709 1156.86 26.5527 1155.37 26.5527C1153.57 26.5527 1152.48 25.2871 1152.48 23.3066ZM1153.54 22.7617H1157.03C1156.93 21.5137 1156.23 20.9219 1155.3 20.9219C1154.36 20.9219 1153.65 21.5605 1153.54 22.7617ZM1159.53 20.125H1160.55V21.0742H1160.64C1160.96 20.4062 1161.55 20.0137 1162.48 20.0137C1163.9 20.0137 1164.69 20.8516 1164.69 22.3516V26.4414H1163.67V22.5976C1163.67 21.4609 1163.2 20.916 1162.2 20.916C1161.19 20.916 1160.55 21.5957 1160.55 22.7031V26.4414H1159.53V20.125ZM1166.81 24.8008V20.9688H1165.81V20.125H1166.81V18.4902H1167.86V20.125H1169.25V20.9688H1167.86V24.543C1167.86 25.2871 1168.12 25.586 1168.78 25.586C1168.96 25.586 1169.06 25.5801 1169.25 25.5626V26.4298C1169.05 26.465 1168.86 26.4884 1168.66 26.4884C1167.36 26.4883 1166.81 26.0078 1166.81 24.8008Z" fill="white" fill-opacity="0.8"/>
<path d="M1210.57 24.0715H1207.21L1206.36 26.4914H1205.25L1208.37 18.0363H1209.41L1212.53 26.4914H1211.42L1210.57 24.0715ZM1207.52 23.175H1210.26L1208.94 19.4016H1208.84L1207.52 23.175ZM1217.62 22.1086C1217.45 21.4816 1216.9 20.9719 1215.99 20.9719C1214.85 20.9719 1214.14 21.8801 1214.14 23.3098C1214.14 24.7688 1214.86 25.6946 1215.99 25.6946C1216.84 25.6946 1217.43 25.302 1217.62 24.5872H1218.64C1218.45 25.7474 1217.51 26.6028 1215.99 26.6028C1214.22 26.6028 1213.09 25.3196 1213.09 23.3098C1213.09 21.341 1214.22 20.0637 1215.99 20.0637C1217.52 20.0637 1218.46 20.9836 1218.64 22.1086H1217.62ZM1224.21 22.1086C1224.05 21.4816 1223.49 20.9719 1222.58 20.9719C1221.45 20.9719 1220.73 21.8801 1220.73 23.3098C1220.73 24.7688 1221.46 25.6946 1222.58 25.6946C1223.43 25.6946 1224.02 25.302 1224.21 24.5872H1225.23C1225.05 25.7474 1224.11 26.6028 1222.59 26.6028C1220.82 26.6028 1219.69 25.3196 1219.69 23.3098C1219.69 21.341 1220.81 20.0637 1222.58 20.0637C1224.12 20.0637 1225.05 20.9836 1225.23 22.1086H1224.21ZM1231.79 24.8566C1231.5 25.9347 1230.51 26.6027 1229.13 26.6027C1227.38 26.6027 1226.28 25.3371 1226.28 23.339C1226.28 21.3527 1227.4 20.0636 1229.13 20.0636C1230.84 20.0636 1231.87 21.2765 1231.87 23.2394V23.6261H1227.33V23.673C1227.38 24.921 1228.08 25.7121 1229.15 25.7121C1229.97 25.7121 1230.52 25.4133 1230.78 24.8566H1231.79ZM1227.33 22.8117H1230.81C1230.79 21.6926 1230.12 20.9543 1229.12 20.9543C1228.11 20.9543 1227.41 21.6926 1227.33 22.8117ZM1235.54 20.0637C1236.87 20.0637 1237.79 20.7199 1237.92 21.7571H1236.93C1236.79 21.2532 1236.3 20.9192 1235.54 20.9192C1234.79 20.9192 1234.2 21.3001 1234.2 21.8626C1234.2 22.2962 1234.55 22.5657 1235.3 22.7474L1236.27 22.9818C1237.46 23.2689 1238.03 23.7845 1238.03 24.6927C1238.03 25.8236 1236.94 26.6029 1235.5 26.6029C1234.1 26.6029 1233.13 25.9291 1233.02 24.8802H1234.06C1234.23 25.4134 1234.73 25.7532 1235.54 25.7532C1236.39 25.7532 1237 25.3489 1237 24.7688C1237 24.3352 1236.67 24.0422 1235.99 23.8782L1234.91 23.6145C1233.73 23.3274 1233.19 22.8176 1233.19 21.9036C1233.19 20.8547 1234.2 20.0637 1235.54 20.0637ZM1241.59 20.0637C1242.91 20.0637 1243.83 20.7199 1243.97 21.7571H1242.97C1242.84 21.2532 1242.34 20.9192 1241.58 20.9192C1240.83 20.9192 1240.25 21.3001 1240.25 21.8626C1240.25 22.2962 1240.6 22.5657 1241.34 22.7474L1242.31 22.9818C1243.5 23.2689 1244.08 23.7845 1244.08 24.6927C1244.08 25.8236 1242.98 26.6029 1241.55 26.6029C1240.14 26.6029 1239.17 25.9291 1239.06 24.8802H1240.1C1240.27 25.4134 1240.77 25.7532 1241.58 25.7532C1242.43 25.7532 1243.04 25.3489 1243.04 24.7688C1243.04 24.3352 1242.71 24.0422 1242.04 23.8782L1240.95 23.6145C1239.77 23.3274 1239.23 22.8176 1239.23 21.9036C1239.23 20.8547 1240.25 20.0637 1241.59 20.0637ZM1245.22 23.3332C1245.22 21.3 1246.34 20.0637 1248.14 20.0637C1249.93 20.0637 1251.05 21.3 1251.05 23.3332C1251.05 25.3605 1249.93 26.6027 1248.14 26.6027C1246.34 26.6027 1245.22 25.3605 1245.22 23.3332ZM1250 23.3332C1250 21.8332 1249.33 20.9719 1248.14 20.9719C1246.94 20.9719 1246.27 21.8332 1246.27 23.3332C1246.27 24.8273 1246.94 25.6945 1248.14 25.6945C1249.33 25.6945 1250 24.8273 1250 23.3332ZM1252.51 20.175H1253.47V21.1125H1253.56C1253.75 20.4973 1254.48 20.0637 1255.32 20.0637C1255.48 20.0637 1255.69 20.0754 1255.82 20.093V21.1008C1255.74 21.0774 1255.38 21.0422 1255.18 21.0422C1254.21 21.0422 1253.52 21.6867 1253.52 22.5774V26.4915H1252.51L1252.51 20.175ZM1256.78 18.2531C1256.78 17.8664 1257.1 17.55 1257.49 17.55C1257.87 17.55 1258.19 17.8664 1258.19 18.2531C1258.19 18.6398 1257.87 18.9562 1257.49 18.9562C1257.1 18.9562 1256.78 18.6398 1256.78 18.2531ZM1256.98 20.175H1257.99V26.4914H1256.98V20.175ZM1264.98 24.8566C1264.69 25.9347 1263.71 26.6027 1262.32 26.6027C1260.57 26.6027 1259.48 25.3371 1259.48 23.339C1259.48 21.3527 1260.59 20.0636 1262.32 20.0636C1264.03 20.0636 1265.07 21.2765 1265.07 23.2394V23.6261H1260.53V23.673C1260.58 24.921 1261.28 25.7121 1262.35 25.7121C1263.16 25.7121 1263.71 25.4133 1263.98 24.8566H1264.98ZM1260.53 22.8117H1264.01C1263.98 21.6926 1263.31 20.9543 1262.31 20.9543C1261.3 20.9543 1260.6 21.6926 1260.53 22.8117ZM1268.74 20.0637C1270.06 20.0637 1270.98 20.7199 1271.12 21.7571H1270.12C1269.99 21.2532 1269.49 20.9192 1268.73 20.9192C1267.98 20.9192 1267.4 21.3001 1267.4 21.8626C1267.4 22.2962 1267.75 22.5657 1268.49 22.7474L1269.46 22.9818C1270.65 23.2689 1271.23 23.7845 1271.23 24.6927C1271.23 25.8236 1270.13 26.6029 1268.7 26.6029C1267.29 26.6029 1266.32 25.9291 1266.21 24.8802H1267.25C1267.42 25.4134 1267.92 25.7532 1268.73 25.7532C1269.58 25.7532 1270.19 25.3489 1270.19 24.7688C1270.19 24.3352 1269.86 24.0422 1269.19 23.8782L1268.1 23.6145C1266.92 23.3274 1266.38 22.8176 1266.38 21.9036C1266.38 20.8547 1267.4 20.0637 1268.74 20.0637Z" fill="white" fill-opacity="0.8"/>
<path d="M1349.17 18.5337V20.1687H1350.58V21.0127H1349.17V24.5867C1349.17 25.3307 1349.45 25.6467 1350.11 25.6467C1350.29 25.6467 1350.39 25.6407 1350.58 25.6237V26.4727C1350.38 26.5087 1350.18 26.5317 1349.98 26.5317C1348.68 26.5317 1348.16 26.0517 1348.16 24.8447V21.0127H1347.14V20.1687H1348.16V18.5337H1349.17ZM1343.04 20.1687H1344V21.1057H1344.09C1344.28 20.4907 1345.01 20.0567 1345.85 20.0567C1346.01 20.0567 1346.22 20.0687 1346.35 20.0867V21.0947C1346.27 21.0707 1345.9 21.0357 1345.71 21.0357C1344.74 21.0357 1344.05 21.6797 1344.05 22.5707V26.4847H1343.04V20.1687ZM1340.58 23.3267C1340.58 21.8267 1339.9 20.9657 1338.71 20.9657C1337.51 20.9657 1336.84 21.8267 1336.84 23.3267C1336.84 24.8207 1337.51 25.6877 1338.71 25.6877C1339.9 25.6877 1340.58 24.8207 1340.58 23.3267ZM1335.8 23.3267C1335.8 21.2937 1336.91 20.0567 1338.71 20.0567C1340.51 20.0567 1341.62 21.2937 1341.62 23.3267C1341.62 25.3537 1340.51 26.5967 1338.71 26.5967C1336.91 26.5967 1335.8 25.3537 1335.8 23.3267ZM1333.69 23.3267C1333.69 21.8497 1333 20.9657 1331.84 20.9657C1330.7 20.9657 1329.98 21.8737 1329.98 23.3267C1329.98 24.7737 1330.7 25.6877 1331.84 25.6877C1333 25.6877 1333.69 24.8037 1333.69 23.3267ZM1334.73 23.3267C1334.73 25.3017 1333.68 26.5967 1332.08 26.5967C1331.17 26.5967 1330.45 26.2037 1330.1 25.5357H1330.01V28.5947H1329V20.1687H1329.96V21.2227H1330.05C1330.46 20.4967 1331.21 20.0567 1332.08 20.0567C1333.69 20.0567 1334.73 21.3407 1334.73 23.3267ZM1326.68 23.3267C1326.68 21.8497 1325.99 20.9657 1324.84 20.9657C1323.69 20.9657 1322.97 21.8737 1322.97 23.3267C1322.97 24.7737 1323.69 25.6877 1324.83 25.6877C1325.99 25.6877 1326.68 24.8037 1326.68 23.3267ZM1327.73 23.3267C1327.73 25.3017 1326.68 26.5967 1325.07 26.5967C1324.17 26.5967 1323.44 26.2037 1323.1 25.5357H1323V28.5947H1322V20.1687H1322.96V21.2227H1323.05C1323.45 20.4967 1324.21 20.0567 1325.07 20.0567C1326.68 20.0567 1327.73 21.3407 1327.73 23.3267ZM1320.08 26.4847H1319.12V25.4947H1319.03C1318.71 26.1977 1318.04 26.5967 1317.07 26.5967C1315.65 26.5967 1314.91 25.7527 1314.91 24.2587V20.1687H1315.92V24.0127C1315.92 25.1487 1316.34 25.6767 1317.35 25.6767C1318.46 25.6767 1319.07 25.0137 1319.07 23.9067V20.1687H1320.08V26.4847ZM1308.39 24.2757C1308.52 25.1607 1309.36 25.7227 1310.56 25.7227C1311.7 25.7227 1312.54 25.1077 1312.54 24.2697C1312.54 23.5497 1312.01 23.0927 1310.85 22.7997L1309.76 22.5177C1308.23 22.1317 1307.57 21.4397 1307.57 20.2387C1307.57 18.8037 1308.77 17.8307 1310.56 17.8307C1312.19 17.8307 1313.41 18.8037 1313.5 20.1687H1312.44C1312.29 19.3017 1311.58 18.7857 1310.52 18.7857C1309.4 18.7857 1308.65 19.3477 1308.65 20.2037C1308.65 20.8657 1309.12 21.2467 1310.28 21.5457L1311.17 21.7797C1312.92 22.2197 1313.62 22.8987 1313.62 24.1407C1313.62 25.6937 1312.4 26.6837 1310.46 26.6837C1308.67 26.6837 1307.44 25.7347 1307.32 24.2757H1308.39Z" fill="white" fill-opacity="0.8"/>
<path d="M1400.49 27.702L1396.62 23.832C1397.32 22.903 1397.74 21.751 1397.74 20.5C1397.74 17.44 1395.25 14.95 1392.19 14.95C1389.13 14.95 1386.64 17.44 1386.64 20.5C1386.64 23.561 1389.13 26.05 1392.19 26.05C1393.44 26.05 1394.59 25.629 1395.52 24.928L1399.39 28.798C1399.54 28.949 1399.74 29.026 1399.94 29.026C1400.14 29.026 1400.34 28.95 1400.49 28.798C1400.79 28.495 1400.79 28.005 1400.49 27.702ZM1387.74 20.5C1387.74 18.046 1389.74 16.05 1392.19 16.05C1394.64 16.05 1396.64 18.047 1396.64 20.5C1396.64 22.953 1394.64 24.95 1392.19 24.95C1389.74 24.95 1387.74 22.954 1387.74 20.5Z" fill="white" fill-opacity="0.8"/>
<path d="M1447.68 16.5283H1446.66C1446.55 15.7173 1446.16 14.9723 1445.55 14.4284C1444.93 13.8845 1444.15 13.5777 1443.33 13.5635C1442.51 13.5777 1441.73 13.8845 1441.11 14.4284C1440.5 14.9723 1440.11 15.7173 1440 16.5283H1438.98C1438.42 16.5287 1437.88 16.7517 1437.48 17.1485C1437.08 17.5452 1436.86 18.0833 1436.86 18.6445V26.36C1436.86 26.9212 1437.08 27.4592 1437.48 27.856C1437.88 28.2528 1438.42 28.4761 1438.98 28.4767H1447.68C1448.24 28.4762 1448.78 28.2531 1449.18 27.8562C1449.58 27.4594 1449.8 26.9213 1449.8 26.36V18.6445C1449.8 18.0834 1449.58 17.5454 1449.18 17.1487C1448.78 16.7519 1448.24 16.5288 1447.68 16.5283ZM1443.33 14.6631C1443.86 14.6746 1444.37 14.8657 1444.77 15.2048C1445.17 15.544 1445.45 16.0109 1445.55 16.5283H1441.11C1441.21 16.0109 1441.49 15.544 1441.89 15.2048C1442.29 14.8657 1442.8 14.6746 1443.33 14.6631ZM1448.7 26.36C1448.7 26.6296 1448.59 26.888 1448.4 27.0787C1448.21 27.2694 1447.95 27.3767 1447.68 27.3771H1438.98C1438.71 27.3767 1438.45 27.2693 1438.26 27.0787C1438.07 26.888 1437.96 26.6296 1437.96 26.36V18.6445C1437.96 18.375 1438.07 18.1166 1438.26 17.926C1438.45 17.7354 1438.71 17.6282 1438.98 17.6279H1447.68C1447.95 17.6283 1448.21 17.7355 1448.4 17.9261C1448.59 18.1167 1448.7 18.375 1448.7 18.6445V26.36Z" fill="white" fill-opacity="0.8"/>
</g>
<defs>
<filter id="filter0_b_3_309" x="-19.5" y="-19.5" width="1960" height="84" filterUnits="userSpaceOnUse" color-interpolation-filters="sRGB">
<feFlood flood-opacity="0" result="BackgroundImageFix"/>
<feGaussianBlur in="BackgroundImageFix" stdDeviation="10"/>
<feComposite in2="SourceAlpha" operator="in" result="effect1_backgroundBlur_3_309"/>
<feBlend mode="normal" in="SourceGraphic" in2="effect1_backgroundBlur_3_309" result="shape"/>
</filter>
</defs>
</svg>
